<svg viewBox="0 0 512 512.00015" xmlns="http://www.w3.org/2000/svg"><path d="m512 226v105l-82 30h-401.800781l-28.199219-30v-105c0-8.402344 6.597656-15 15-15h482c8.402344 0 15 6.597656 15 15zm0 0" fill="#c6715a"/><path d="m512 226v105l-82 30h-174v-150h241c8.402344 0 15 6.597656 15 15zm0 0" fill="#b35f49"/><path d="m468.402344 183.867188-177.003906 102.300781h-127.796876l-65.402343-113.699219c-4.199219-6.902344-1.800781-16.203125 5.402343-20.402344l152.398438-87.898437 107.402344-62.101563c7.199218-4.199218 16.199218-1.800781 20.398437 5.402344l90 156c4.199219 7.199219 1.800781 16.199219-5.398437 20.398438zm0 0" fill="#ececf1"/><path d="m468.402344 183.867188-177.003906 102.300781h-35.398438v-222l107.402344-62.101563c7.199218-4.199218 16.199218-1.800781 20.398437 5.402344l90 156c4.199219 7.199219 1.800781 16.199219-5.398437 20.398438zm0 0" fill="#e2e2e7"/><path d="m421 286c0 8.402344-6.597656 15-15 15h-300c-8.402344 0-15-6.597656-15-15s6.597656-15 15-15h300c8.402344 0 15 6.597656 15 15zm0 0" fill="#53433f"/><path d="m406 301h-150v-30h150c8.402344 0 15 6.597656 15 15s-6.597656 15-15 15zm0 0" fill="#3e322e"/><path d="m0 331v166c0 8.402344 6.597656 15 15 15h482c8.402344 0 15-6.597656 15-15v-166zm0 0" fill="#99503d"/><path d="m512 331v166c0 8.402344-6.597656 15-15 15h-241v-181zm0 0" fill="#804231"/><path d="m330.097656 110.800781-30 90c-3.296875 10.5-16.796875 13.800781-24.597656 5.699219l-30-30c-6-5.699219-6-15.300781 0-21 2.699219-3 6.601562-4.5 10.5-4.5s7.800781 1.5 10.5 4.5l12.902344 12.601562 22.5-66.902343c2.398437-7.796875 10.796875-12 18.898437-9.296875 7.796875 2.398437 12 11.097656 9.296875 18.898437zm0 0" fill="#a8d32a"/><path d="m330.097656 110.800781-30 90c-3.296875 10.5-16.796875 13.800781-24.597656 5.699219l-19.5-19.5v-36c3.898438 0 7.800781 1.5 10.5 4.5l12.902344 12.601562 22.5-66.902343c2.398437-7.796875 10.796875-12 18.898437-9.296875 7.796875 2.398437 12 11.097656 9.296875 18.898437zm0 0" fill="#93bf00"/></svg>